<?xml version="1.0" encoding="UTF-8" standalone="no"?>
<!DOCTYPE svg PUBLIC "-//W3C//DTD SVG 1.1//EN" "http://www.w3.org/Graphics/SVG/1.1/DTD/svg11.dtd">
<svg version="1.1" xmlns="http://www.w3.org/2000/svg" xmlns:xlink="http://www.w3.org/1999/xlink" preserveAspectRatio="xMidYMid meet" viewBox="0 0 500 500" width="500" height="500"><defs><path d="M454.42 159.87C459.95 159.87 464.42 164.35 464.42 169.87C464.42 174.25 464.42 177.38 464.42 181.76C464.42 187.28 459.95 191.76 454.42 191.76C371.64 191.76 133.29 191.76 50.51 191.76C44.99 191.76 40.51 187.28 40.51 181.76C40.51 177.38 40.51 174.25 40.51 169.87C40.51 164.35 44.99 159.87 50.51 159.87C133.29 159.87 371.64 159.87 454.42 159.87Z" id="d2bz8gawWg"></path><path d="M451.96 316.96C457.48 316.96 461.96 321.44 461.96 326.96C461.96 331.34 461.96 334.47 461.96 338.85C461.96 344.37 457.48 348.85 451.96 348.85C369.17 348.85 130.83 348.85 48.04 348.85C42.52 348.85 38.04 344.37 38.04 338.85C38.04 334.47 38.04 331.34 38.04 326.96C38.04 321.44 42.52 316.96 48.04 316.96C130.83 316.96 369.17 316.96 451.96 316.96Z" id="k3XnzOhNK5"></path><path d="M317.71 452.98C317.71 458.5 322.19 462.98 327.71 462.98C332.09 462.98 335.22 462.98 339.59 462.98C345.12 462.98 349.59 458.5 349.59 452.98C349.59 370.19 349.59 131.85 349.59 49.06C349.59 43.54 345.12 39.06 339.59 39.06C335.22 39.06 332.09 39.06 327.71 39.06C322.19 39.06 317.71 43.54 317.71 49.06C317.71 131.85 317.71 370.19 317.71 452.98Z" id="eN6Kpng"></path><path d="M159.58 452.98C159.58 458.5 164.06 462.98 169.58 462.98C173.96 462.98 177.09 462.98 181.46 462.98C186.99 462.98 191.46 458.5 191.46 452.98C191.46 370.19 191.46 131.85 191.46 49.06C191.46 43.54 186.99 39.06 181.46 39.06C177.09 39.06 173.96 39.06 169.58 39.06C164.06 39.06 159.58 43.54 159.58 49.06C159.58 131.85 159.58 370.19 159.58 452.98Z" id="a4Ia1OW2uI"></path><path d="M191.67 333.12C191.67 342.23 184.24 349.63 175.09 349.63C165.94 349.63 158.51 342.23 158.51 333.12C158.51 324 165.94 316.6 175.09 316.6C184.24 316.6 191.67 324 191.67 333.12Z" id="e10xrNq2oH"></path><path d="M191.51 174.99C191.51 184.1 184.08 191.5 174.93 191.5C165.78 191.5 158.36 184.1 158.36 174.99C158.36 165.87 165.78 158.47 174.93 158.47C184.08 158.47 191.51 165.87 191.51 174.99Z" id="agjR53OMC"></path><path d="M350.05 175.55C350.05 184.67 342.62 192.07 333.47 192.07C324.32 192.07 316.89 184.67 316.89 175.55C316.89 166.44 324.32 159.04 333.47 159.04C342.62 159.04 350.05 166.44 350.05 175.55Z" id="a1DQ4yWyQy"></path><path d="M349.89 331.92C349.89 341.03 342.46 348.43 333.31 348.43C324.16 348.43 316.73 341.03 316.73 331.92C316.73 322.8 324.16 315.4 333.31 315.4C342.46 315.4 349.89 322.8 349.89 331.92Z" id="hOXXJhWpu"></path></defs><g><g><g><use xlink:href="#d2bz8gawWg" opacity="1" fill="#2b6f7c" fill-opacity="1"></use></g><g><use xlink:href="#k3XnzOhNK5" opacity="1" fill="#2b6f7c" fill-opacity="1"></use></g><g><use xlink:href="#eN6Kpng" opacity="1" fill="#2b6f7c" fill-opacity="1"></use></g><g><use xlink:href="#a4Ia1OW2uI" opacity="1" fill="#2b6f7c" fill-opacity="1"></use></g><g><use xlink:href="#e10xrNq2oH" opacity="1" fill="#b0d0fe" fill-opacity="1"></use></g><g><use xlink:href="#agjR53OMC" opacity="1" fill="#b0d0fe" fill-opacity="1"></use></g><g><use xlink:href="#a1DQ4yWyQy" opacity="1" fill="#b0d0fe" fill-opacity="1"></use></g><g><use xlink:href="#hOXXJhWpu" opacity="1" fill="#b0d0fe" fill-opacity="1"></use></g></g></g></svg>