<?xml version="1.0" encoding="UTF-8" standalone="no"?>
<!DOCTYPE svg PUBLIC "-//W3C//DTD SVG 1.1//EN" "http://www.w3.org/Graphics/SVG/1.1/DTD/svg11.dtd">
<svg version="1.1" xmlns="http://www.w3.org/2000/svg" xmlns:xlink="http://www.w3.org/1999/xlink" preserveAspectRatio="xMidYMid meet" viewBox="0 0 640 640" width="640" height="640"><defs><path d="M102.02 150L102.02 150L100 150L102.02 150Z" id="a1RxaQQHV3"></path><path d="M560 152.12C565.52 152.12 570 156.6 570 162.12C570 171.27 570 188.73 570 197.88C570 203.4 565.52 207.88 560 207.88C466 207.88 194 207.88 100 207.88C94.48 207.88 90 203.4 90 197.88C90 188.73 90 171.27 90 162.12C90 156.6 94.48 152.12 100 152.12C194 152.12 466 152.12 560 152.12Z" id="flxYcn0AE"></path><path d="M560 380C565.52 380 570 384.48 570 390C570 399.15 570 416.61 570 425.76C570 431.28 565.52 435.76 560 435.76C466 435.76 194 435.76 100 435.76C94.48 435.76 90 431.28 90 425.76C90 416.61 90 399.15 90 390C90 384.48 94.48 380 100 380C194 380 466 380 560 380Z" id="kRVEb3vDA"></path><path d="M412.12 520C412.12 525.52 416.6 530 422.12 530C431.27 530 448.73 530 457.88 530C463.4 530 467.88 525.52 467.88 520C467.88 426 467.88 154 467.88 60C467.88 54.48 463.4 50 457.88 50C448.73 50 431.27 50 422.12 50C416.6 50 412.12 54.48 412.12 60C412.12 154 412.12 426 412.12 520Z" id="d7abcm8hQP"></path><path d="M172.12 520C172.12 525.52 176.6 530 182.12 530C191.27 530 208.73 530 217.88 530C223.4 530 227.88 525.52 227.88 520C227.88 426 227.88 154 227.88 60C227.88 54.48 223.4 50 217.88 50C208.73 50 191.27 50 182.12 50C176.6 50 172.12 54.48 172.12 60C172.12 154 172.12 426 172.12 520Z" id="dEydWlsVD"></path></defs><g><g><g><use xlink:href="#a1RxaQQHV3" opacity="1" fill="#28fa90" fill-opacity="1"></use></g><g><use xlink:href="#flxYcn0AE" opacity="1" fill="#000000" fill-opacity="1"></use></g><g><use xlink:href="#kRVEb3vDA" opacity="1" fill="#000000" fill-opacity="1"></use></g><g><use xlink:href="#d7abcm8hQP" opacity="1" fill="#000000" fill-opacity="1"></use></g><g><use xlink:href="#dEydWlsVD" opacity="1" fill="#000000" fill-opacity="1"></use></g></g></g></svg>